<?xml version="1.0" encoding="UTF-8" standalone="no"?>
<svg
   xmlns:dc="http://purl.org/dc/elements/1.1/"
   xmlns:cc="http://creativecommons.org/ns#"
   xmlns:rdf="http://www.w3.org/1999/02/22-rdf-syntax-ns#"
   xmlns:svg="http://www.w3.org/2000/svg"
   xmlns="http://www.w3.org/2000/svg"
   viewBox="0 0 486.66666 221.92"
   height="221.92"
   width="486.66666"
   xml:space="preserve"
   id="svg2"
   version="1.1"><metadata
     id="metadata8"><rdf:RDF><cc:Work
         rdf:about=""><dc:format>image/svg+xml</dc:format><dc:type
           rdf:resource="http://purl.org/dc/dcmitype/StillImage" /></cc:Work></rdf:RDF></metadata><defs
     id="defs6" /><g
     transform="matrix(1.3333333,0,0,-1.3333333,0,221.92)"
     id="g10"><g
       transform="scale(0.1)"
       id="g12"><path
         id="path14"
         style="fill:#e11d25;fill-opacity:1;fill-rule:nonzero;stroke:none"
         d="m 3000.01,1032.59 57.25,-247.887 -108.25,4.293 51,243.594 z m -133.35,394.04 82.88,-106.44 -205.96,-892.471 -107.72,-107.508 302.71,4.828 -70.6,81.93 48.24,267.433 161.81,-1.429 43.99,-261.711 -68.84,-91.774 371.85,3.403 -92.23,107.507 -216.77,992.652 -249.36,3.58 v 0" /><path
         id="path16"
         style="fill:#e11d25;fill-opacity:1;fill-rule:nonzero;stroke:none"
         d="m 2432.54,1321.08 c 176.28,-6.8 276.42,-742.35 6.72,-905.35 l -6.72,905.35 z m -39.89,88.24 -225.3,10.13 85.78,-101.87 1.13,-903.639 -115.68,-111.882 299.3,16.101 c 523.99,120.34 436.64,1113.2 -45.23,1091.16 v 0" /><path
         id="path18"
         style="fill:#e11d25;fill-opacity:1;fill-rule:nonzero;stroke:none"
         d="M 163.125,1611.42 60.2227,1268.67 329.758,1527.7 862.395,1521.26 66.0664,39.3516 1034.14,20.5703 l 86.12,287.3987 513.15,7.332 -5.72,499.301 -125.95,-393.5 -157.95,0.707 1.13,393.304 88.16,10.477 85.11,-118.731 -0.59,347.861 -87.28,-112.138 -85.24,1.992 -0.12,376.286 153.85,11.19 132.85,-334.827 4.01,427.127 -548.43,-4.9 71.5,-108.97 2.84,-901.441 -255.92,-279.527 -579.996,-3.582 795.156,1484.77 -957.695,0.72 v 0" /><path
         id="path20"
         style="fill:#e11d25;fill-opacity:1;fill-rule:nonzero;stroke:none"
         d="m 1643.65,1415.26 385.13,7.66 -89.79,-96.8 4.05,-901.55 84.74,2.809 121.98,404.699 5.14,-509.109 -517.23,2.09 113.14,97.011 -6.27,906.71 -100.89,86.48 v 0" /><path
         id="path22"
         style="fill:#ec8b98;fill-opacity:1;fill-rule:nonzero;stroke:none"
         d="m 936.316,1454.82 -188.515,-440.17 -76.008,-45.08 264.523,485.25 v 0" /><path
         id="path24"
         style="fill:#761519;fill-opacity:1;fill-rule:nonzero;stroke:none"
         d="m 936.438,1455.79 -261.137,-479.063 -7.02,91.593 268.157,387.47 v 0" /><path
         id="path26"
         style="fill:#ec8b98;fill-opacity:1;fill-rule:nonzero;stroke:none"
         d="m 1662.81,1451.85 c 127.46,-9.3 254.92,-0.71 382.38,-4.29 -12.28,-15.03 -25.14,-30.77 -42.1,-37.21 -109.91,2.15 -220.42,1.43 -330.34,0.72 -2.34,0.71 -6.43,2.86 -8.18,4.29 -0.59,12.16 -1.17,24.33 -1.76,36.49 v 0" /><path
         id="path28"
         style="fill:#761519;fill-opacity:1;fill-rule:nonzero;stroke:none"
         d="m 2049.28,1452.57 9.85,-41.97 -96.96,-89.69 3.5,-880.129 -37.41,-30.062 -4.68,938.451 79.51,61.18 46.19,42.22" /><path
         id="path30"
         style="fill:#ec8b98;fill-opacity:1;fill-rule:nonzero;stroke:none"
         d="m 2149.26,1448.27 c 145.59,-3.57 291.03,18.61 430.18,-45.79 l -26.17,-34.35 c -114.59,61.54 -242.64,37.92 -363.66,42.94 l -66.66,-0.72 26.31,37.92 v 0" /><path
         id="path32"
         style="fill:#ec8b98;fill-opacity:1;fill-rule:nonzero;stroke:none"
         d="m 2853.63,1447.56 h 279.64 l -29.23,-31.49 h -271.29 l 20.88,31.49" /><path
         id="path34"
         style="fill:#761519;fill-opacity:1;fill-rule:nonzero;stroke:none"
         d="m 3133.27,1447.56 4.09,5.72 208.15,-997.479 108.16,-128.082 -2.34,-36.489 -419.21,-3.582 -9.35,41.5 54.37,2.864 322.16,1.429 -81.86,84.438 -213.4,996.761 29.23,32.92 v 0" /><path
         id="path36"
         style="fill:#761519;fill-opacity:1;fill-rule:nonzero;stroke:none"
         d="m 1662.81,1451.85 1.76,-36.49 92.38,-78.71 -40.35,-8.59 -52.62,38.64 V 978.156 l -67.23,-0.715 29.23,30.049 -0.58,404.29 37.41,40.07 v 0" /><path
         id="path38"
         style="fill:#761519;fill-opacity:1;fill-rule:nonzero;stroke:none"
         d="m 2122.95,1410.35 c 22.22,0 44.44,0.72 66.66,0.72 23.97,-30.77 53.2,-54.39 78.93,-83.01 -13.45,-10.73 -27.48,-19.32 -43.27,-23.61 -33.33,37.21 -67.82,70.84 -102.32,105.9 v 0" /><path
         id="path40"
         style="fill:#761519;fill-opacity:1;fill-rule:nonzero;stroke:none"
         d="m 2836.34,1416.07 h 52.54 l 76,-93.73 -38.75,-2.82 -89.79,96.55 v 0" /><path
         id="path42"
         style="fill:#ec8b98;fill-opacity:1;fill-rule:nonzero;stroke:none"
         d="m 2927.55,1317.33 37.33,5.01 -207.56,-905.18 -90.62,-82.281 -56.13,-47.231 -6.43,42.223 126.29,118.059 197.12,869.4 v 0" /><path
         id="path44"
         style="fill:#761519;fill-opacity:1;fill-rule:nonzero;stroke:none"
         d="m 2553.27,1368.13 26.38,33.66 c 183.58,-94.45 243.74,-360.66 227.37,-584.634 -4.09,-110.91 -22.8,-223.965 -73.08,-318.418 -74.84,-153.847 -230.36,-212.519 -369.52,-209.66 -408.68,-2.859 -817.37,0.723 -1226.64,-1.43 L 1055.34,0 H 42.6797 l -20.4609,41.5 998.2012,-6.4414 93.09,301.5004 513.05,-2.399 v 468.684 l 39.18,32.918 -1.76,-459.383 -8.77,-43.789 491.13,0.851 v 465.11 l 39.17,44.367 V 399.27 l -16.37,-67.969 284.15,5.719 c 128.05,13.601 248.49,121.64 283.57,275.492 64.9,258.312 47.36,631.828 -183.59,755.618 v 0" /><path
         id="path46"
         style="fill:#761519;fill-opacity:1;fill-rule:nonzero;stroke:none"
         d="m 1329.55,1348.1 183.84,0.05 -28.32,-35.11 h -116.35 l -1.17,-5.73 V 958.836 l -36.25,-32.914 -1.75,422.178 v 0" /><path
         id="path48"
         style="fill:#ec8b98;fill-opacity:1;fill-rule:nonzero;stroke:none"
         d="m 1510.8,1348.81 115.18,-341.32 -29.23,-30.049 -1.76,-1.433 -109.92,337.032 25.73,35.77 v 0" /><path
         id="path50"
         style="fill:#ec8b98;fill-opacity:1;fill-rule:nonzero;stroke:none"
         d="m 2407.69,1348.1 c 178.32,-34.35 221.01,-302.68 221.01,-486.58 -4.1,-177.457 -44.44,-435.77 -215.16,-469.399 l 37.41,52.949 c 49.7,20.039 73.67,84.43 93.55,138.821 60.22,197.488 60.22,430.759 -16.37,621.809 -18.12,37.93 -40.34,80.86 -77.76,92.31 l -42.68,50.09 v 0" /><path
         id="path52"
         style="fill:#761519;fill-opacity:1;fill-rule:nonzero;stroke:none"
         d="m 2410.61,1344.52 39.76,-46.51 0.58,-852.94 -33.91,-47.941 -6.43,947.391" /><path
         id="path54"
         style="fill:#ec8b98;fill-opacity:1;fill-rule:nonzero;stroke:none"
         d="m 1756.95,1336.65 5.84,-918.771 -105.82,-85.867 7.01,44.367 59.64,55.812 -7.02,895.869 40.35,8.59 v 0" /><path
         id="path56"
         style="fill:#ec8b98;fill-opacity:1;fill-rule:nonzero;stroke:none"
         d="m 2225.27,1304.45 43.27,23.61 -0.59,-928.79 -98.81,-67.969 16.37,67.969 44.44,27.199 -4.68,877.981 v 0" /><path
         id="path58"
         style="fill:#ec8b98;fill-opacity:1;fill-rule:nonzero;stroke:none"
         d="m 1141.87,1311.6 37.42,11.45 -0.59,-924.491 -273.04,-269.047 -579.996,-3.582 1.754,7.871 64.316,37.211 503.989,-1.434 247.317,254.742 -1.17,887.28 v 0" /><path
         id="path60"
         style="fill:#ec8b98;fill-opacity:1;fill-rule:nonzero;stroke:none"
         d="m 3004.64,1109.82 73.09,-342.754 H 2922.2 l 47.36,40.789 63.73,-4.292 -31.57,143.109 2.92,163.148" /><path
         id="path62"
         style="fill:#761519;fill-opacity:1;fill-rule:nonzero;stroke:none"
         d="m 3004.64,1101.95 -2.92,-155.278 -32.16,-138.817 -45.02,-40.683 80.1,334.778 v 0" /><path
         id="path64"
         style="fill:#ec8b98;fill-opacity:1;fill-rule:nonzero;stroke:none"
         d="m 1513.72,1091.21 38.59,-15.74 -43.27,-50.09 -70.16,-103.751 -107.58,4.293 36.25,32.914 56.72,-0.715 89.45,133.089 v 0" /><path
         id="path66"
         style="fill:#761519;fill-opacity:1;fill-rule:nonzero;stroke:none"
         d="m 1509.04,1025.38 c 12.87,18.61 28.07,34.35 43.27,50.09 0,-130.228 0.59,-260.458 0,-390.689 -0.58,-2.148 -2.34,-5.726 -2.92,-7.871 -5.27,-2.148 -11.11,-4.297 -16.96,-6.441 -9.94,-3.578 -19.88,-5.727 -29.82,-8.59 -26.31,47.23 -53.2,93.742 -79.51,140.969 -17.54,0.715 -34.5,0.715 -52.04,0.715 h -6.43 c 0,-120.215 1.17,-240.422 0,-360.641 -12.28,-12.16 -24.56,-23.613 -36.25,-35.774 -0.59,147.403 -0.59,294.805 -0.59,441.493 35.67,-0.715 71.34,-0.715 107,0 29.23,-35.063 49.11,-78.711 74.84,-116.633 0.58,98.027 1.17,196.058 -0.59,293.372 v 0" /><path
         id="path68"
         style="fill:#761519;fill-opacity:1;fill-rule:nonzero;stroke:none"
         d="m 550.18,855.797 78.343,37.926 6.434,-85.868 -73.086,-36.496 -11.691,84.438 v 0" /><path
         id="path70"
         style="fill:#ec8b98;fill-opacity:1;fill-rule:nonzero;stroke:none"
         d="m 2118.86,840.055 65.61,2.297 -38.13,-43.801 -113.43,-392.121 -106.99,-0.719 39.76,35.07 41.51,2.86 111.67,396.414 v 0" /><path
         id="path72"
         style="fill:#ec8b98;fill-opacity:1;fill-rule:nonzero;stroke:none"
         d="m 1597.91,832.898 65.99,0.665 -37.34,-30.715 -112.84,-396.418 h -185.34 v 0.718 l 36.25,35.774 127.46,2.148 105.83,387.828 h -0.01" /><path
         id="path74"
         style="fill:#ec8b98;fill-opacity:1;fill-rule:nonzero;stroke:none"
         d="m 561.871,771.363 30.402,57.242 40.344,-22.898 -73.086,-38.641 2.34,4.297" /><path
         id="path76"
         style="fill:#761519;fill-opacity:1;fill-rule:nonzero;stroke:none"
         d="m 2907.59,691.219 182.41,-1.43 -29.81,-37.211 -124.54,-2.148 -50.28,-238.282 81.3,-84.558 -9.97,-35.649 -346.13,-4.293 56.13,47.231 247.9,-1.438 -67.24,62.969 60.23,294.809 v 0" /><path
         id="path78"
         style="fill:#ec8b98;fill-opacity:1;fill-rule:nonzero;stroke:none"
         d="m 3090,689.789 1.17,-5.726 49.7,-283.352 -65.44,-68.699 -52.79,-2.864 79.47,85.102 -41.92,238.328 29.81,37.211 v 0" /><path
         id="path80"
         style="fill:#761519;fill-opacity:1;fill-rule:nonzero;stroke:none"
         d="m 437.922,636.121 80.101,35.063 V 593.191 L 244.98,197.488 437.922,636.121 v 0" /><path
         id="path82"
         style="fill:#ec8b98;fill-opacity:1;fill-rule:nonzero;stroke:none"
         d="M 477.68,614.66 519.191,590.328 252.41,204.129 477.68,614.66 v 0" /><path
         id="path84"
         style="fill:#ec8b98;fill-opacity:1;fill-rule:nonzero;stroke:none"
         d="m 133.891,1660.08 c 343.789,3.58 688.746,-3.58 1031.949,4.29 l -4.68,-5.01 c -13.44,-15.74 -25.72,-33.63 -40.34,-48.66 -319.23,2.15 -638.465,0.72 -957.695,0.72 C 129.797,1496.93 93.5469,1383.88 60.2227,1268.67 41.5117,1246.49 20.4648,1228.6 0,1210 c 43.2656,150.98 91.793,299.09 133.891,450.08" /><path
         id="path86"
         style="fill:#761519;fill-opacity:1;fill-rule:nonzero;stroke:none"
         d="m 1120.82,1610.7 40.34,48.66 14.62,-46.51 -97.97,-178.48 101.19,-112.42 -37.13,-10.35 -82.44,85.87 L 391.73,171.012 327.418,133.801 1120.82,1610.7 v 0" /><path
         id="path88"
         style="fill:#761519;fill-opacity:1;fill-rule:nonzero;stroke:none"
         d="m 329.758,1527.7 532.637,-6.44 -64.317,-35.06 -457.797,0.71 L 26.3086,1178.51 0,1210 329.758,1527.7 v 0" /><path
         id="path90"
         style="fill:#ec8b98;fill-opacity:1;fill-rule:nonzero;stroke:none"
         d="M 867.656,1523.41 66.0664,39.3516 H 22.2188 L 798.078,1486.2 l 69.578,37.21 v 0" /><path
         id="path92"
         style="fill:#ec8b98;fill-opacity:1;fill-rule:nonzero;stroke:none"
         d="m 1071.71,1423.23 c 5.26,9.3 11.11,18.6 16.37,27.91 190.02,-7.87 380.62,0 570.64,-3.58 -11.11,-12.17 -22.22,-24.33 -33.33,-35.78 -174.81,-0.72 -349.63,0.72 -524.45,-0.72 -9.94,3.58 -19.88,7.88 -29.23,12.17 v 0" /><path
         id="path94"
         style="fill:#100f0d;fill-opacity:1;fill-rule:nonzero;stroke:none"
         d="m 1701.59,1613.39 c 1.36,15.55 2.04,27.29 2.04,35.22 v 4.32 c 0.21,-0.11 1.26,-0.26 3.16,-0.47 0,-4.61 0.32,-8.21 0.96,-10.8 10.09,-0.63 26.71,-1.15 49.84,-1.57 17.77,0.31 36.16,0.84 55.19,1.57 0.23,0.45 0.65,2.05 1.27,4.83 0.64,2.8 1.07,4.58 1.27,5.34 1.05,0.42 2.05,0.63 3,0.63 -0.95,-4.4 -1.95,-11.43 -3,-21.08 -1.05,-9.74 -1.78,-16.12 -2.19,-19.13 -0.65,0.11 -1.6,0.37 -2.85,0.79 0.1,1.93 0.2,3.76 0.3,5.5 0,1.59 0,3.89 0,6.91 v 5.3 c -2.41,1.38 -6.56,2.51 -12.44,3.37 -6,0.86 -11.95,1.45 -17.83,1.77 -6.01,0.31 -10.9,0.47 -14.67,0.47 -0.1,-3.32 -0.21,-9.06 -0.31,-17.2 -0.23,-8.24 -0.45,-18.65 -0.65,-31.21 0.43,-29.37 0.75,-47.81 0.96,-55.32 7.68,-0.95 14.45,-1.64 20.33,-2.08 l 0.66,-2.56 c -1.05,0.11 -3.21,0.21 -6.47,0.32 -3.37,0 -7.1,0.05 -11.21,0.15 -4.11,0 -7.47,0.06 -10.09,0.16 -2.54,-0.1 -5.8,-0.16 -9.78,-0.16 -4.11,-0.1 -7.85,-0.15 -11.21,-0.15 -3.36,-0.11 -5.62,-0.21 -6.78,-0.32 l 0.93,2.56 c 11.78,1.07 18.46,1.76 20.02,2.08 0.44,14.81 0.66,33.91 0.66,57.28 0,19.61 -0.22,35.09 -0.66,46.45 -23.95,-0.31 -38.83,-2.18 -44.63,-5.61 -0.52,-1.39 -1.57,-6.86 -3.16,-16.42 -1.57,-0.42 -2.45,-0.73 -2.66,-0.94 v 0" /><path
         id="path96"
         style="fill:#100f0d;fill-opacity:1;fill-rule:nonzero;stroke:none"
         d="m 1826.72,1639.27 -1.27,2.39 c 4.31,-0.11 8.25,-0.16 11.82,-0.16 3.49,-0.1 7.23,-0.26 11.21,-0.47 13.69,0.42 21.89,0.63 24.61,0.63 l -0.46,-2.39 c -4.32,-0.32 -9.58,-1.06 -15.79,-2.24 -0.62,-10.73 -0.93,-26.23 -0.93,-46.49 7.58,0 14.78,-0.11 21.61,-0.31 3.26,0.1 8.2,0.2 14.83,0.31 6.52,0 13.3,0.05 20.33,0.16 6.96,0 12.48,0.05 16.56,0.16 v 20.1 c 0,6.65 -0.31,15.34 -0.92,26.07 -6.52,1.28 -11.79,2.02 -15.79,2.24 l -0.46,2.39 c 4.31,-0.11 8.3,-0.16 11.97,-0.16 3.6,-0.1 7.91,-0.26 12.94,-0.47 5.47,0.21 9.68,0.37 12.64,0.47 2.95,0 6.21,0.05 9.78,0.16 l -0.96,-2.24 c -2.83,-0.42 -5.19,-0.73 -7.09,-0.94 -1.9,-0.34 -4.96,-0.82 -9.17,-1.45 -0.41,-10.19 -0.82,-25.35 -1.23,-45.51 0.1,-4.63 0.26,-11.34 0.46,-20.12 0.21,-8.78 0.41,-15.8 0.62,-21.06 0.1,-5.37 0.27,-11.27 0.5,-17.71 5.34,-0.84 8.59,-1.26 9.74,-1.26 1.06,-0.1 3.11,-0.38 6.17,-0.82 l 0.96,-2.56 c -3.26,0 -10.26,0.21 -20.99,0.64 -13.35,-0.43 -22.24,-0.75 -26.65,-0.99 l 0.77,2.91 c 2.54,0.31 7.8,1 15.79,2.08 0.61,6.54 0.92,24.34 0.92,53.39 h -5.5 c -5.17,0 -10.74,-0.1 -16.72,-0.31 -6.11,-0.32 -14.11,-0.69 -23.99,-1.14 -9.99,-0.42 -19.03,-0.73 -27.12,-0.94 0.11,-4.82 0.21,-13.02 0.31,-24.62 0.1,-11.57 0.43,-20.36 0.96,-26.38 8.19,-1.29 13.34,-1.98 15.45,-2.08 l 0.46,-2.91 c -4.31,0.24 -11.67,0.56 -22.07,0.98 -13.25,-0.42 -21.67,-0.63 -25.26,-0.63 l 0.96,2.56 c 7.16,0.75 12.68,1.45 16.56,2.08 0.44,24.44 0.66,41.88 0.66,52.3 0,16.93 -0.33,34.3 -0.97,52.1 -2.74,0.97 -8.16,1.71 -16.25,2.24 v 0" /><path
         id="path98"
         style="fill:#100f0d;fill-opacity:1;fill-rule:nonzero;stroke:none"
         d="m 1993.95,1637.03 c -2.55,0.63 -5.18,1.11 -7.9,1.45 -2.85,0.31 -5.64,0.57 -8.36,0.79 l -0.96,2.39 c 4.96,-0.21 15.94,-0.52 32.97,-0.94 17.76,0.31 30.38,0.85 37.86,1.61 l 1.27,7.54 2.35,0.67 c -0.93,-9.35 -1.61,-16.64 -2.05,-21.88 -0.41,-5.26 -0.71,-9.07 -0.92,-11.42 l -2.54,1.3 v 11.58 c 0,2.35 -4.89,4.22 -14.67,5.61 -9.89,1.29 -17.52,1.93 -22.88,1.93 -0.85,-14.03 -1.27,-29.95 -1.27,-47.75 15.99,0 27.62,0.91 34.89,2.71 l 1.58,6.91 2.35,0.35 c -0.51,-3.22 -1.14,-7.94 -1.89,-14.17 -0.85,-6.33 -1.53,-11.42 -2.04,-15.27 l -2.23,1.29 c 0.1,1.81 0.2,3.47 0.3,4.99 0,1.49 0,3.36 0,5.61 -4.41,2.67 -14.55,4.01 -30.42,4.01 h -2.54 c 0,-2.25 -0.11,-4.33 -0.31,-6.25 0.1,-4.94 0.37,-12.51 0.81,-22.69 0.31,-10.18 0.46,-18.54 0.46,-25.09 22.93,0 36.5,2.15 40.71,6.44 0,0.32 0.36,2.14 1.08,5.46 0.74,3.32 1.27,6.17 1.58,8.52 l 3.5,1.29 c -0.95,-3.84 -2.07,-10.11 -3.35,-18.8 -1.26,-8.69 -1.99,-14.86 -2.2,-18.49 l -2.5,0.62 -0.34,9.03 c -1.47,1.08 -14.29,1.82 -38.48,2.24 -17.66,-0.42 -27.92,-0.74 -30.77,-0.98 l 0.65,2.91 c 7.45,0.65 12.97,1.34 16.56,2.08 0.41,18.45 0.62,37.01 0.62,55.67 0,18.33 -0.31,34.57 -0.92,48.73 v 0" /><path
         id="path100"
         style="fill:#100f0d;fill-opacity:1;fill-rule:nonzero;stroke:none"
         d="m 2193.25,1540.2 c 2.65,7.83 4.5,14.1 5.55,18.81 l 3.16,0.67 c -1.7,-5.47 -3.44,-13.9 -5.24,-25.29 -1.77,-11.46 -2.83,-20.3 -3.16,-26.5 l -2.97,0.95 c 0.52,4.71 0.77,10.97 0.77,18.8 -5.98,0 -9.71,0.07 -11.2,0.2 -1.47,0 -6.14,0.1 -14.02,0.31 -8.01,0.11 -15.59,0.26 -22.72,0.48 -3.47,-0.11 -6.68,-0.17 -9.63,-0.17 -2.96,-0.1 -6.01,-0.26 -9.17,-0.46 l 0.66,2.55 c 10.19,1.18 15.71,1.87 16.56,2.08 0.64,21.57 0.96,39.69 0.96,54.38 0,12.01 -0.06,21.17 -0.19,27.48 -0.11,6.33 -0.36,13.85 -0.77,22.54 -3.57,0.73 -9.2,1.48 -16.87,2.24 l -0.35,2.39 c 3.49,-0.11 7.28,-0.26 11.36,-0.47 4.01,-0.21 7.11,-0.37 9.32,-0.47 5.27,0.21 9.58,0.37 12.94,0.47 3.26,0.1 5.95,0.21 8.05,0.31 2.11,0.11 4.84,0.16 8.21,0.16 l -0.97,-2.39 c -2.72,-0.32 -5.71,-0.7 -8.97,-1.14 -3.26,-0.42 -6.32,-0.79 -9.17,-1.1 -0.1,-1.28 -0.2,-5.63 -0.31,-13.04 -0.2,-7.4 -0.41,-17.54 -0.61,-30.39 0.2,-23.27 0.41,-39.3 0.61,-48.09 0.11,-8.8 0.21,-13.2 0.31,-13.2 20.72,0.45 33.34,3.08 37.86,7.89" /><path
         id="path102"
         style="fill:#100f0d;fill-opacity:1;fill-rule:nonzero;stroke:none"
         d="m 2230.57,1637.03 c -2.54,0.63 -5.17,1.11 -7.89,1.45 -2.85,0.31 -5.64,0.57 -8.36,0.79 l -0.96,2.39 c 4.95,-0.21 15.94,-0.52 32.96,-0.94 17.77,0.31 30.39,0.85 37.86,1.61 l 1.27,7.54 2.35,0.67 c -0.92,-9.35 -1.6,-16.64 -2.04,-21.88 -0.41,-5.26 -0.72,-9.07 -0.92,-11.42 l -2.55,1.3 v 11.58 c 0,2.35 -4.89,4.22 -14.67,5.61 -9.88,1.29 -17.51,1.93 -22.88,1.93 -0.84,-14.03 -1.27,-29.95 -1.27,-47.75 16,0 27.63,0.91 34.9,2.71 l 1.58,6.91 2.34,0.35 c -0.51,-3.22 -1.14,-7.94 -1.88,-14.17 -0.85,-6.33 -1.53,-11.42 -2.04,-15.27 l -2.24,1.29 c 0.11,1.81 0.21,3.47 0.31,4.99 0,1.49 0,3.36 0,5.61 -4.42,2.67 -14.56,4.01 -30.42,4.01 h -2.55 c 0,-2.25 -0.1,-4.33 -0.3,-6.25 0.1,-4.94 0.37,-12.51 0.8,-22.69 0.31,-10.18 0.47,-18.54 0.47,-25.09 22.92,0 36.49,2.15 40.7,6.44 0,0.32 0.36,2.14 1.08,5.46 0.75,3.32 1.27,6.17 1.58,8.52 l 3.51,1.29 c -0.95,-3.84 -2.07,-10.11 -3.35,-18.8 -1.26,-8.69 -1.99,-14.86 -2.2,-18.49 l -2.5,0.62 -0.35,9.03 c -1.46,1.08 -14.29,1.82 -38.47,2.24 -17.67,-0.42 -27.93,-0.74 -30.78,-0.98 l 0.66,2.91 c 7.44,0.65 12.97,1.34 16.56,2.08 0.41,18.45 0.62,37.01 0.62,55.67 0,18.33 -0.31,34.57 -0.93,48.73 v 0" /><path
         id="path104"
         style="fill:#100f0d;fill-opacity:1;fill-rule:nonzero;stroke:none"
         d="m 2396.64,1578.33 c 2.95,-0.1 5.79,-0.16 8.51,-0.16 2.62,-0.13 6.78,-0.3 12.48,-0.51 5.88,0.21 10.4,0.38 13.56,0.51 3.16,0 6.52,0.05 10.09,0.16 l -0.96,-2.9 c -3.47,-0.32 -7.99,-0.96 -13.56,-1.93 -0.1,-0.76 -0.36,-7.57 -0.77,-20.42 0.31,-7.51 0.46,-14.92 0.46,-22.22 -14.84,-3.43 -28.67,-5.14 -41.48,-5.14 -6.96,0 -13.85,0.53 -20.68,1.61 -15.56,2.9 -27.55,9.29 -35.97,19.16 -8.5,9.84 -13.12,20.82 -13.87,32.94 -0.1,1.28 -0.15,2.58 -0.15,3.89 0,7.17 1.46,14.46 4.39,21.86 3.49,8.8 9.23,16.57 17.22,23.33 7.98,6.75 17.97,11.25 29.96,13.51 6.93,0.83 12.77,1.25 17.52,1.25 12.1,0 24.04,-1.28 35.82,-3.85 0.62,3.12 1.14,5.69 1.58,7.74 0.31,1.91 0.67,4.37 1.08,7.38 l 2.85,0.67 c -1.36,-13.64 -2.21,-27.04 -2.54,-40.21 0.23,-1.31 0.34,-3.09 0.34,-5.34 l -2.69,0.98 c -0.11,1.29 -0.21,2.62 -0.31,4.01 -0.21,1.31 -0.36,2.6 -0.46,3.89 -0.24,1.28 -0.4,2.61 -0.5,4 -0.21,1.39 -0.42,2.62 -0.62,3.69 -4.11,3.32 -10.05,6.22 -17.83,8.68 -7.89,2.48 -15.93,3.73 -24.15,3.73 -8.73,0 -16.82,-1.99 -24.26,-5.97 -7.58,-4.08 -13.64,-9.71 -18.18,-16.88 -4.62,-7.18 -6.99,-15.26 -7.09,-24.27 v -0.66 c 0,-11.37 2.95,-21.65 8.86,-30.87 5.88,-9.45 13.29,-16.74 22.22,-21.86 8.53,-4.95 18.89,-7.58 31.08,-7.9 9.99,0.32 18.3,1.88 24.92,4.67 0.21,2.89 0.31,10.02 0.31,21.4 0,9.22 -0.1,14.95 -0.31,17.2 -2.41,0.31 -4.99,0.68 -7.74,1.1 -2.83,0.34 -5.56,0.61 -8.2,0.82 l -0.93,2.91" /><path
         id="path106"
         style="fill:#100f0d;fill-opacity:1;fill-rule:nonzero;stroke:none"
         d="m 2472.74,1637.03 c -2.54,0.63 -5.17,1.11 -7.89,1.45 -2.85,0.31 -5.64,0.57 -8.36,0.79 l -0.96,2.39 c 4.95,-0.21 15.94,-0.52 32.97,-0.94 17.76,0.31 30.38,0.85 37.85,1.61 l 1.27,7.54 2.35,0.67 c -0.92,-9.35 -1.6,-16.64 -2.04,-21.88 -0.41,-5.26 -0.72,-9.07 -0.92,-11.42 l -2.54,1.3 v 11.58 c 0,2.35 -4.89,4.22 -14.68,5.61 -9.88,1.29 -17.51,1.93 -22.87,1.93 -0.85,-14.03 -1.27,-29.95 -1.27,-47.75 15.99,0 27.62,0.91 34.89,2.71 l 1.58,6.91 2.35,0.35 c -0.52,-3.22 -1.15,-7.94 -1.89,-14.17 -0.85,-6.33 -1.53,-11.42 -2.04,-15.27 l -2.24,1.29 c 0.11,1.81 0.21,3.47 0.31,4.99 0,1.49 0,3.36 0,5.61 -4.41,2.67 -14.56,4.01 -30.42,4.01 h -2.54 c 0,-2.25 -0.11,-4.33 -0.31,-6.25 0.1,-4.94 0.37,-12.51 0.81,-22.69 0.3,-10.18 0.46,-18.54 0.46,-25.09 22.93,0 36.5,2.15 40.71,6.44 0,0.32 0.36,2.14 1.08,5.46 0.74,3.32 1.27,6.17 1.57,8.52 l 3.51,1.29 c -0.95,-3.84 -2.07,-10.11 -3.35,-18.8 -1.26,-8.69 -1.99,-14.86 -2.2,-18.49 l -2.5,0.62 -0.35,9.03 c -1.46,1.08 -14.29,1.82 -38.47,2.24 -17.67,-0.42 -27.92,-0.74 -30.77,-0.98 l 0.65,2.91 c 7.45,0.65 12.97,1.34 16.56,2.08 0.41,18.45 0.62,37.01 0.62,55.67 0,18.33 -0.31,34.57 -0.93,48.73 v 0" /><path
         id="path108"
         style="fill:#100f0d;fill-opacity:1;fill-rule:nonzero;stroke:none"
         d="m 2556.32,1527.99 0.61,2.56 c 1.26,0.21 3.1,0.48 5.51,0.82 2.44,0.31 5.17,0.74 8.2,1.26 1.39,6.44 2.66,41.13 3.82,104.08 -0.64,0.21 -3.6,0.58 -8.86,1.1 -5.24,0.55 -8.13,0.83 -8.67,0.83 l -0.61,2.39 c 16.71,0.42 27.28,0.85 31.69,1.3 6.22,-8.59 12.47,-17 18.76,-25.25 6.32,-8.37 14.21,-18.51 23.69,-30.39 9.34,-12.01 17.06,-21.88 23.16,-29.6 6.1,-7.72 9.47,-12.17 10.11,-13.35 h 0.31 c 0,51.77 -0.68,82.87 -2.04,93.29 -5.57,1.18 -11.47,1.92 -17.68,2.24 l -0.62,2.39 c 3.98,-0.11 7.67,-0.16 11.06,-0.16 3.26,-0.1 7.2,-0.26 11.82,-0.47 5.03,0.21 8.82,0.37 11.36,0.47 2.52,0 5.3,0.05 8.36,0.16 l -0.65,-2.39 c -5.58,-0.87 -9.88,-1.61 -12.91,-2.24 -0.84,-4.74 -1.49,-13.43 -1.92,-26.07 -0.52,-12.65 -0.88,-25.77 -1.08,-39.38 -0.23,-13.74 -0.5,-31.72 -0.81,-53.91 -4.62,6.12 -11.93,15.56 -21.91,28.31 -9.99,12.77 -17.24,22 -21.76,27.68 -4.55,5.57 -11.39,14.09 -20.53,25.56 -9.14,11.46 -17.72,22.08 -25.73,31.84 0,-16.07 0.22,-33.65 0.66,-52.73 0.3,-19.08 0.83,-34.31 1.58,-45.7 1.56,-0.52 7.81,-1.22 18.75,-2.08 l 0.31,-2.56 c -3.77,0.21 -7.39,0.37 -10.86,0.47 -3.47,0 -7.25,0.06 -11.36,0.17 -3.9,-0.11 -7.49,-0.17 -10.75,-0.17 -3.36,-0.1 -7.03,-0.26 -11.01,-0.47 v 0" /><path
         id="path110"
         style="fill:#100f0d;fill-opacity:1;fill-rule:nonzero;stroke:none"
         d="m 2734.94,1636.05 c -0.41,-10.08 -0.82,-26.91 -1.23,-50.5 0.41,-22.71 0.82,-39.17 1.23,-49.35 8.12,-1.62 15.22,-2.59 21.3,-2.9 7.57,0.2 16.1,1.7 25.57,4.47 13.15,4.4 23.19,11.7 30.12,21.91 5.57,8.25 8.36,17.25 8.36,27.01 0,2.02 -0.1,4.1 -0.31,6.24 -2.11,18.04 -11.46,30.54 -28.08,37.5 -9.88,4.4 -23.45,6.6 -40.71,6.6 -5.87,0 -11.29,-0.33 -16.25,-0.98 z m -14.17,0.98 c -5.8,1.17 -11.32,1.92 -16.56,2.24 l -0.35,2.39 c 6.52,0 14.1,-0.21 22.73,-0.63 22.31,0.42 35.88,0.63 40.7,0.63 22.42,-0.73 38.83,-5.01 49.22,-12.84 4.11,-3.01 7.32,-6.28 9.63,-9.82 2.21,-3.53 3.89,-7.18 5.05,-10.95 1.15,-3.85 1.73,-7.17 1.73,-9.97 v -1.42 c 0,-16.96 -5.37,-31.27 -16.1,-42.95 -7.14,-7.82 -15.39,-13.61 -24.76,-17.35 -9.35,-3.77 -18.76,-6.02 -28.23,-6.75 -9.48,-0.87 -21.26,-1.3 -35.36,-1.3 -5.77,-0.21 -13.98,-0.32 -24.61,-0.32 l 0.66,2.56 c 7.13,0.31 12.55,1 16.25,2.08 0.31,2.04 0.56,7.73 0.77,17.08 0.1,9.31 0.15,22.82 0.15,40.52 0,14.37 -0.05,25.14 -0.15,32.31 -0.21,7.07 -0.46,11.9 -0.77,14.49 v 0" /><path
         id="path112"
         style="fill:#100f0d;fill-opacity:1;fill-rule:nonzero;stroke:none"
         d="m 2945.65,1636.71 c -12.3,-2.59 -21.5,-8.28 -27.62,-17.08 -6.21,-8.79 -9.42,-18.59 -9.62,-29.4 0.1,-1.08 0.42,-4.03 0.96,-8.88 1.67,-9.31 5.08,-17.46 10.24,-24.42 5.06,-7.07 10.95,-12.59 17.68,-16.57 6.73,-4.08 13.25,-6.66 19.57,-7.73 3.46,-0.42 6.2,-0.68 8.2,-0.79 8.83,0 17.24,2.15 25.23,6.44 7.98,4.29 14.13,10.89 18.44,19.79 3.16,6.52 4.74,14.12 4.74,22.81 0,3.12 -0.2,6.33 -0.61,9.66 -0.44,5.26 -2.18,10.84 -5.22,16.73 -3.05,5.89 -6.94,11.08 -11.69,15.58 -4.73,4.51 -10.35,8.16 -16.87,10.96 -6.63,2.77 -13.67,4.16 -21.14,4.16 -4.52,0 -8.62,-0.42 -12.29,-1.26 z m 13.25,6.92 c 2.1,0.1 4.16,0.15 6.16,0.15 10.6,0 19.91,-1.71 27.92,-5.14 9.45,-4.19 17.01,-10.09 22.69,-17.71 3.15,-4.19 5.57,-8.96 7.26,-14.31 1.68,-5.35 2.52,-11.15 2.52,-17.37 0,-15.21 -5.05,-29.05 -15.14,-41.51 -3.16,-3.95 -7.2,-7.59 -12.13,-10.91 -5.06,-3.33 -10.74,-5.9 -17.06,-7.74 -6.39,-1.91 -12.97,-2.93 -19.72,-3.06 -1.15,0 -2.31,0 -3.47,0 -16.92,0 -30.74,4.62 -41.47,13.86 -12.2,10.71 -18.45,24.42 -18.76,41.15 0.31,11.91 3.15,22.47 8.51,31.68 3.16,5.58 7.31,10.62 12.44,15.12 5.06,4.5 11.11,8.21 18.14,11.11 6.96,2.78 14.33,4.33 22.11,4.68 v 0" /><path
         id="path114"
         style="fill:#100f0d;fill-opacity:1;fill-rule:nonzero;stroke:none"
         d="m 3061.23,1637.34 c -3.8,0.76 -9.43,1.45 -16.87,2.08 l -0.66,2.24 c 5.91,-0.21 17.22,-0.52 33.93,-0.94 18.72,0.31 31.77,0.85 39.13,1.61 l 1.74,10.91 2.85,0.98 c -0.54,-2.45 -1.13,-8.72 -1.77,-18.8 -0.72,-10.08 -1.08,-16.68 -1.08,-19.79 l -2.7,0.98 c 0,2.78 -0.2,7.05 -0.62,12.84 v 0.32 c 0,1.62 -4.99,3.33 -14.98,5.14 -10.83,1.83 -18.98,2.75 -24.45,2.75 h -0.31 c -0.75,-8.59 -1.27,-18.77 -1.58,-30.55 0.21,-3.54 0.31,-9.7 0.31,-18.49 1.36,0 2.77,0 4.23,0 4.42,-0.11 9.43,0.1 15.02,0.63 7.45,0.65 12.33,1.41 14.64,2.27 l 2.54,9.31 h 2.35 c -0.72,-3.54 -1.3,-8.89 -1.73,-16.06 -0.41,-7.2 -0.72,-13.38 -0.93,-18.53 l -2.54,0.98 v 2.24 c 0,1.51 -0.1,3.56 -0.31,6.12 -0.2,2.56 -0.31,4.28 -0.3,5.15 -0.65,1.07 -4.01,2.09 -10.1,3.06 -6.21,0.96 -12.42,1.45 -18.64,1.45 h -4.23 c 0,-25.21 0.42,-42.74 1.27,-52.61 0.72,-0.11 2.23,-0.32 4.54,-0.63 2.31,-0.32 4.42,-0.57 6.32,-0.79 1.9,-0.33 3.8,-0.56 5.7,-0.66 l 0.62,-2.55 c -0.75,0 -7.75,0.2 -20.99,0.63 -16.41,-0.43 -25.62,-0.75 -27.62,-0.99 l 0.66,2.91 c 2,0.21 4.84,0.48 8.51,0.82 3.57,0.32 6.35,0.74 8.36,1.26 0.43,15.55 0.65,32.86 0.65,51.94 0,13.85 -0.32,31.44 -0.96,52.77 v 0" /><path
         id="path116"
         style="fill:#100f0d;fill-opacity:1;fill-rule:nonzero;stroke:none"
         d="m 3507.46,290.512 c 0.7,7.957 1.05,13.968 1.05,18.027 v 2.211 c 0.1,-0.059 0.64,-0.141 1.62,-0.238 0,-2.364 0.16,-4.203 0.49,-5.532 5.18,-0.32 13.7,-0.589 25.57,-0.8 9.12,0.16 18.55,0.429 28.31,0.8 0.12,0.231 0.34,1.051 0.66,2.469 0.33,1.442 0.54,2.352 0.65,2.742 l 1.54,0.321 c -0.49,-2.25 -1,-5.852 -1.54,-10.793 -0.54,-4.989 -0.92,-8.25 -1.13,-9.789 l -1.46,0.398 c 0.05,0.992 0.1,1.934 0.16,2.82 0,0.813 0,1.993 0,3.532 v 2.718 c -1.24,0.711 -3.37,1.282 -6.38,1.723 -3.09,0.449 -6.14,0.75 -9.15,0.91 -3.08,0.16 -5.59,0.239 -7.53,0.239 -0.05,-1.7 -0.11,-4.641 -0.16,-8.801 -0.12,-4.219 -0.23,-9.547 -0.33,-15.981 0.22,-15.027 0.38,-24.457 0.49,-28.308 3.94,-0.481 7.42,-0.84 10.43,-1.059 l 0.34,-1.312 c -0.54,0.062 -1.65,0.113 -3.32,0.16 -1.73,0 -3.64,0.031 -5.75,0.082 -2.11,0 -3.83,0.027 -5.18,0.078 -1.3,-0.051 -2.98,-0.078 -5.02,-0.078 -2.1,-0.051 -4.02,-0.082 -5.75,-0.082 -1.72,-0.047 -2.88,-0.11 -3.47,-0.16 l 0.47,1.312 c 6.05,0.539 9.47,0.899 10.28,1.059 0.22,7.582 0.33,17.351 0.33,29.32 0,10.031 -0.11,17.949 -0.33,23.77 -12.3,-0.161 -19.93,-1.122 -22.91,-2.879 -0.26,-0.7 -0.8,-3.5 -1.62,-8.391 -0.8,-0.219 -1.25,-0.379 -1.36,-0.488" /><path
         id="path118"
         style="fill:#100f0d;fill-opacity:1;fill-rule:nonzero;stroke:none"
         d="m 3578.14,303.762 -0.34,1.218 c 1.57,-0.05 3.03,-0.082 4.39,-0.082 1.34,-0.058 3.2,-0.128 5.57,-0.238 2.91,0.11 5.1,0.192 6.56,0.238 1.4,0 2.88,0.032 4.45,0.082 l -0.16,-1.218 c -0.6,-0.063 -2.49,-0.442 -5.67,-1.153 2.16,-6.589 4.86,-14.328 8.1,-23.218 3.24,-8.891 5.72,-15.629 7.45,-20.243 0.1,0.211 0.62,1.5 1.54,3.883 0.91,2.297 2.61,6.469 5.1,12.489 2.42,6.05 4.66,11.718 6.71,17.039 1.99,5.32 3.23,8.671 3.72,10.05 -2.27,0.551 -4.24,0.93 -5.91,1.153 l -0.31,1.218 c 1.44,-0.05 2.81,-0.082 4.1,-0.082 1.26,-0.058 2.85,-0.128 4.79,-0.238 6.48,0.211 10.01,0.32 10.61,0.32 l -0.16,-1.218 c -0.38,0 -1.33,-0.121 -2.85,-0.34 -1.51,-0.223 -2.72,-0.492 -3.63,-0.813 1.83,-9.597 5.5,-27.41 11,-53.429 2.48,-0.711 4.58,-1.059 6.31,-1.059 l 0.49,-1.492 c -1.24,0.121 -5.07,0.293 -11.5,0.5 -5.49,-0.207 -9.29,-0.32 -11.4,-0.32 l 0.16,1.312 c 4.91,0.438 7.85,0.789 8.81,1.059 -0.37,2.691 -0.94,6.32 -1.7,10.871 -0.75,4.5 -1.32,7.738 -1.7,9.711 -0.42,1.976 -1.31,6.347 -2.67,13.097 -1.34,6.68 -2.36,11.75 -3.06,15.211 l -20.72,-50.621 -18.46,51.621 -0.32,-0.179 c -1.95,-8.719 -3.78,-18.653 -5.51,-29.782 -1.45,-9.39 -2.17,-15.589 -2.17,-18.597 l 0.08,-1.332 c 0.64,-0.059 1.39,-0.129 2.25,-0.239 0.87,-0.113 1.63,-0.191 2.27,-0.242 0.6,-0.109 1.33,-0.219 2.2,-0.34 0.85,-0.109 1.5,-0.187 1.93,-0.238 l 0.32,-1.312 c -1.4,0 -5.49,0.113 -12.29,0.32 -1.52,-0.051 -2.92,-0.078 -4.21,-0.078 -1.36,-0.063 -2.84,-0.129 -4.45,-0.242 l 0.16,1.312 c 0.49,0.16 1.16,0.301 2.02,0.418 0.81,0.102 2.24,0.32 4.28,0.641 0.65,2.039 2.27,9.558 4.87,22.558 2.59,13 4.64,23.293 6.14,30.871 -1.72,0.493 -4.12,0.879 -7.19,1.141 v 0.012" /><path
         id="path120"
         style="fill:#100f0d;fill-opacity:1;fill-rule:nonzero;stroke:none"
         d="m 1551.05,214.5 c -15.53,-3.18 -27.15,-10.16 -34.86,-20.941 -7.85,-10.778 -11.9,-22.789 -12.16,-36.039 0.13,-1.321 0.53,-4.942 1.22,-10.879 2.1,-11.422 6.41,-21.403 12.93,-29.93 6.39,-8.672 13.83,-15.441 22.32,-20.3126 8.49,-5.0078 16.73,-8.1679 24.7,-9.4765 4.38,-0.5235 7.83,-0.8399 10.36,-0.961 11.15,0 21.77,2.6289 31.85,7.8907 10.08,5.2578 17.84,13.3394 23.29,24.2504 3.99,7.988 5.98,17.308 5.98,27.957 0,3.82 -0.26,7.769 -0.78,11.839 -0.55,6.454 -2.75,13.282 -6.59,20.5 -3.84,7.223 -8.76,13.59 -14.76,19.114 -5.96,5.519 -13.06,9.988 -21.29,13.429 -8.37,3.399 -17.27,5.098 -26.7,5.098 -5.7,0 -10.87,-0.519 -15.51,-1.539 z m 16.73,8.469 c 2.66,0.121 5.25,0.191 7.78,0.191 13.39,0 25.14,-2.101 35.25,-6.301 11.93,-5.14 21.48,-12.371 28.64,-21.711 3.99,-5.128 7.04,-10.976 9.17,-17.539 2.12,-6.558 3.18,-13.66 3.18,-21.3 0,-18.637 -6.37,-35.59 -19.11,-50.86 -3.99,-4.847 -9.09,-9.3084 -15.32,-13.3787 -6.38,-4.082 -13.56,-7.2383 -21.54,-9.4805 -8.07,-2.3515 -16.37,-3.6015 -24.89,-3.7617 -1.46,0 -2.92,0 -4.38,0 -21.36,0 -38.82,5.6719 -52.37,16.9922 -15.39,13.1207 -23.29,29.9297 -23.68,50.4417 0.39,14.59 3.97,27.539 10.75,38.828 3.99,6.84 9.22,13.012 15.7,18.531 6.39,5.52 14.02,10.059 22.91,13.617 8.78,3.403 18.09,5.313 27.91,5.731 v 0" /><path
         id="path122"
         style="fill:#100f0d;fill-opacity:1;fill-rule:nonzero;stroke:none"
         d="m 1802.73,177.828 -3.4,1.152 c 0,10.008 -0.39,17.442 -1.17,22.282 -3.34,4.457 -9.12,8.066 -17.36,10.828 -8.36,2.629 -17.52,3.949 -27.47,3.949 -9.56,0 -17.07,-1.051 -22.51,-3.129 -12.06,-4.328 -21.76,-11.371 -29.08,-21.129 -7.42,-9.722 -11.2,-21.011 -11.33,-33.883 0.13,-1.308 0.52,-4.918 1.17,-10.828 2.91,-16.422 9.49,-29.64 19.74,-39.648 10.08,-9.9806 22.3,-16.4103 36.66,-19.3009 4.09,-0.8008 10.58,-1.4609 19.5,-1.9727 17.93,0.3829 32.66,3.8633 44.2,10.4414 l -0.78,-6.5 c -6.38,-3.5585 -14.29,-6.4414 -23.73,-8.6601 -9.4,-2.2383 -19.35,-3.3711 -29.85,-3.3711 -27.62,0 -49.26,8.2227 -64.92,24.6404 -10.76,11.84 -16.34,26.36 -16.72,43.563 0,15.109 4.5,29.367 13.51,42.777 8.92,13.281 21.61,22.68 38.08,28.199 9.14,3.274 20.81,4.91 35.01,4.91 13.03,0 25.51,-1.32 37.44,-3.949 0.81,3.563 1.55,6.723 2.23,9.481 0.52,2.761 1.04,5.648 1.56,8.672 l 3.99,1.199 c -2.79,-16.973 -4.38,-36.879 -4.77,-59.723 v 0" /><path
         id="path124"
         style="fill:#100f0d;fill-opacity:1;fill-rule:nonzero;stroke:none"
         d="m 1860.79,151.98 c 5.02,0 12.19,-0.058 21.49,-0.191 9.31,-0.129 16.94,-0.258 22.9,-0.379 0,0.512 -3.45,10.551 -10.35,30.121 -7.17,19.86 -10.88,30.047 -11.14,30.559 -0.81,-0.641 -4.6,-9.961 -11.38,-27.961 -6.9,-18.16 -10.74,-28.867 -11.52,-32.149 z m -51.01,-71.1714 0.39,3.5625 c 1.46,0 4.52,0.3984 9.19,1.1992 4.64,0.6406 7.3,1.0899 7.98,1.3516 0.9,1.1797 5.21,11.4375 12.93,30.7501 7.55,19.187 15.19,38.84 22.9,58.949 7.56,20.117 12.34,33 14.35,38.649 -4.8,0.929 -10.25,1.71 -16.34,2.359 v 3.359 c 1.98,-0.289 11.13,-0.687 27.47,-1.199 15.82,0.512 24.52,0.91 26.11,1.199 l -0.82,-3.367 c -3.7,0 -8.74,-0.781 -15.13,-2.351 5.58,-18.129 14.2,-42.711 25.87,-73.731 11.58,-31.148 19.14,-49.3593 22.71,-54.6171 0.13,-0.1328 2.92,-0.5938 8.36,-1.3711 5.45,-0.7891 8.38,-1.1797 8.8,-1.1797 l 0.39,-3.5625 c -1.72,0.2812 -11.81,0.6914 -30.29,1.2031 -15.14,-0.5234 -24.62,-0.7734 -28.45,-0.7734 l 1.17,3.1328 c 7.98,0.25 14.75,1.0977 20.33,2.5508 0,0.6679 -3.13,10.0078 -9.39,28.0081 -6.22,17.992 -10.13,28.57 -11.72,31.711 -7.16,0 -23.24,-0.641 -48.23,-1.922 -0.78,-1.188 -2.56,-6.328 -5.35,-15.399 -2.79,-9.082 -5.38,-18.019 -7.78,-26.808 -2.11,-8.0237 -3.16,-13.012 -3.16,-14.9729 v -0.6172 c 7.16,-1.7031 12.2,-2.5508 15.12,-2.5508 l 0.78,-3.1328 c -1.72,0 -9.35,0.25 -22.9,0.7734 -15.79,-0.5234 -24.22,-0.9219 -25.29,-1.2031 v 0" /><path
         id="path126"
         style="fill:#100f0d;fill-opacity:1;fill-rule:nonzero;stroke:none"
         d="m 2007.78,145.488 c 0,-9.207 -0.14,-16.508 -0.43,-21.898 0.16,-3.02 0.3,-6.031 0.43,-9.051 0.13,-3.008 0.26,-6.051 0.39,-9.09 0,-3.148 0.07,-6.2302 0.2,-9.2381 0.13,-3.0195 0.19,-6.1211 0.19,-9.289 1.07,-0.2617 4.72,-0.711 10.94,-1.3516 6.13,-0.6719 9.45,-1.0703 9.97,-1.1992 l 0.78,-3.1328 c -4.77,0.2617 -9.34,0.4531 -13.71,0.582 -4.51,0 -9.36,0.0586 -14.54,0.1914 -20.72,-0.5117 -31.35,-0.7734 -31.9,-0.7734 l 0.82,3.1328 c 12.62,1.0586 19.58,1.9102 20.91,2.5508 0.52,4.75 0.78,20.9181 0.78,48.5081 0,43.5 -0.26,70.121 -0.78,79.84 -2.78,0.378 -6.11,0.769 -9.96,1.152 -3.99,0.418 -7.77,0.816 -11.33,1.207 l -0.44,2.93 h 36.47 c 11.41,0 21.17,-0.188 29.27,-0.579 8.1,-0.511 15.35,-1.55 21.74,-3.121 5.02,-1.32 9.06,-3.23 12.1,-5.73 2.95,-2.5 5.22,-5.391 6.81,-8.66 1.46,-3.309 2.19,-6.598 2.19,-9.867 0,-6.961 -2.72,-13.864 -8.17,-20.692 -5.45,-6.961 -11.82,-12.82 -19.11,-17.57 5.71,-10.102 14.86,-24.371 27.47,-42.781 12.61,-18.3793 21.45,-29.7387 26.5,-34.0707 l -8.55,-0.8164 c -1.89,1.5976 -6.08,5.8867 -12.6,12.8476 -6.48,6.961 -14.64,16.1525 -24.46,27.5705 -9.98,11.301 -18.49,21.148 -25.52,29.551 -3.44,-0.25 -7.15,-0.45 -11.14,-0.582 -4.12,-0.118 -9.22,-0.321 -15.32,-0.571 z m 0,5.102 c 15.79,0 26.94,1.519 33.46,4.57 6.22,2.629 11.07,6.43 14.54,11.399 3.43,4.882 5.62,10.461 6.56,16.75 0.13,1.453 0.19,2.832 0.19,4.14 0,10.141 -4.97,17.313 -14.92,21.512 -11.28,4.719 -24.3,7.211 -39.05,7.461 -0.52,-15.242 -0.78,-37.184 -0.78,-65.832 v 0" /><path
         id="path128"
         style="fill:#100f0d;fill-opacity:1;fill-rule:nonzero;stroke:none"
         d="m 2115.63,217.629 -0.82,2.93 c 3.85,-0.129 7.58,-0.188 11.18,-0.188 3.44,-0.133 9.14,-0.32 17.12,-0.582 8.49,0.262 14.86,0.449 19.11,0.582 4.24,0 8.76,0.059 13.56,0.188 l -1.21,-2.93 c -3.05,-0.258 -6.5,-0.66 -10.36,-1.207 -3.86,-0.641 -7.38,-1.152 -10.55,-1.543 -0.26,-3.938 -0.65,-24.508 -1.17,-61.688 0.52,-38.382 0.91,-60.4605 1.17,-66.2691 6.64,-1.1602 13.61,-2.0117 20.91,-2.5508 l 1.21,-3.1328 c -3.73,0.2617 -7.65,0.4531 -11.77,0.582 -4.24,0 -8.75,0.0586 -13.51,0.1914 -20.2,-0.5117 -32.1,-0.7734 -35.69,-0.7734 l 0.82,3.1328 c 11.02,1.3086 17.99,2.1602 20.91,2.5508 0.52,13.9571 0.78,35.8981 0.78,65.8281 0,23.809 -0.26,44.52 -0.78,62.129 -1.72,0.391 -8.69,1.301 -20.91,2.75 v 0" /><path
         id="path130"
         style="fill:#100f0d;fill-opacity:1;fill-rule:nonzero;stroke:none"
         d="m 2198.88,81.2383 0.78,3.1328 c 1.58,0.25 3.9,0.5898 6.95,1.0078 3.08,0.3828 6.53,0.9024 10.36,1.543 1.75,7.8867 3.35,50.4181 4.81,127.5781 -0.81,0.25 -4.54,0.699 -11.18,1.34 -6.62,0.68 -10.26,1.012 -10.94,1.012 l -0.78,2.937 c 21.1,0.512 34.44,1.039 40.02,1.59 7.84,-10.52 15.74,-20.84 23.68,-30.949 7.97,-10.258 17.94,-22.68 29.9,-37.239 11.8,-14.73 21.55,-26.832 29.25,-36.293 7.7,-9.468 11.95,-14.918 12.76,-16.359 h 0.39 c 0,63.461 -0.86,101.57 -2.58,114.34 -7.03,1.449 -14.47,2.359 -22.31,2.742 l -0.78,2.938 c 5.02,-0.129 9.67,-0.188 13.95,-0.188 4.12,-0.133 9.1,-0.32 14.93,-0.582 6.35,0.262 11.13,0.449 14.34,0.582 3.18,0 6.7,0.059 10.56,0.188 l -0.83,-2.938 c -7.03,-1.051 -12.46,-1.973 -16.29,-2.742 -1.07,-5.809 -1.88,-16.457 -2.43,-31.949 -0.65,-15.5 -1.1,-31.59 -1.36,-48.27 -0.29,-16.851 -0.63,-38.8709 -1.02,-66.078 -5.84,7.5078 -15.06,19.0782 -27.67,34.699 -12.61,15.66 -21.77,26.969 -27.47,33.93 -5.74,6.828 -14.38,17.277 -25.92,31.328 -11.54,14.051 -22.37,27.063 -32.48,39.031 0,-19.699 0.27,-41.25 0.82,-64.629 0.39,-23.39 1.06,-42.07 2,-56.0191 1.98,-0.6406 9.87,-1.4922 23.68,-2.5508 l 0.39,-3.1328 c -4.77,0.2617 -9.34,0.4531 -13.72,0.582 -4.37,0 -9.15,0.0586 -14.34,0.1914 -4.93,-0.1328 -9.45,-0.1914 -13.57,-0.1914 -4.24,-0.1289 -8.88,-0.3203 -13.9,-0.582 v 0" /><path
         id="path132"
         style="fill:#100f0d;fill-opacity:1;fill-rule:nonzero;stroke:none"
         d="m 2416.67,151.98 c 5.02,0 12.19,-0.058 21.49,-0.191 9.3,-0.129 16.94,-0.258 22.9,-0.379 0,0.512 -3.45,10.551 -10.35,30.121 -7.17,19.86 -10.88,30.047 -11.14,30.559 -0.81,-0.641 -4.6,-9.961 -11.38,-27.961 -6.9,-18.16 -10.74,-28.867 -11.52,-32.149 z m -51.01,-71.1714 0.39,3.5625 c 1.46,0 4.52,0.3984 9.19,1.1992 4.63,0.6406 7.29,1.0899 7.97,1.3516 0.91,1.1797 5.22,11.4375 12.94,30.7501 7.55,19.187 15.18,38.84 22.9,58.949 7.55,20.117 12.33,33 14.34,38.649 -4.79,0.929 -10.24,1.71 -16.33,2.359 v 3.359 c 1.97,-0.289 11.13,-0.687 27.47,-1.199 15.82,0.512 24.52,0.91 26.11,1.199 l -0.83,-3.367 c -3.69,0 -8.73,-0.781 -15.12,-2.351 5.58,-18.129 14.2,-42.711 25.87,-73.731 11.57,-31.148 19.14,-49.3593 22.71,-54.6171 0.13,-0.1328 2.92,-0.5938 8.36,-1.3711 5.45,-0.7891 8.38,-1.1797 8.8,-1.1797 l 0.39,-3.5625 c -1.72,0.2812 -11.81,0.6914 -30.29,1.2031 -15.14,-0.5234 -24.62,-0.7734 -28.45,-0.7734 l 1.17,3.1328 c 7.97,0.25 14.75,1.0977 20.32,2.5508 0,0.6679 -3.12,10.0078 -9.38,28.0081 -6.22,17.992 -10.13,28.57 -11.72,31.711 -7.16,0 -23.24,-0.641 -48.23,-1.922 -0.78,-1.188 -2.57,-6.328 -5.35,-15.399 -2.79,-9.082 -5.38,-18.019 -7.78,-26.808 -2.11,-8.0237 -3.16,-13.012 -3.16,-14.9729 v -0.6172 c 7.16,-1.7031 12.2,-2.5508 15.12,-2.5508 l 0.78,-3.1328 c -1.72,0 -9.36,0.25 -22.91,0.7734 -15.78,-0.5234 -24.21,-0.9219 -25.28,-1.2031 v 0" /><path
         id="path134"
         style="fill:#100f0d;fill-opacity:1;fill-rule:nonzero;stroke:none"
         d="m 2630.22,214.5 c -15.53,-3.18 -27.15,-10.16 -34.87,-20.941 -7.84,-10.778 -11.89,-22.789 -12.15,-36.039 0.12,-1.321 0.53,-4.942 1.21,-10.879 2.11,-11.422 6.42,-21.403 12.94,-29.93 6.38,-8.672 13.82,-15.441 22.31,-20.3126 8.5,-5.0078 16.73,-8.1679 24.71,-9.4765 4.37,-0.5235 7.82,-0.8399 10.35,-0.961 11.15,0 21.77,2.6289 31.85,7.8907 10.08,5.2578 17.85,13.3394 23.29,24.2504 3.99,7.988 5.98,17.308 5.98,27.957 0,3.82 -0.25,7.769 -0.77,11.839 -0.56,6.454 -2.75,13.282 -6.59,20.5 -3.84,7.223 -8.76,13.59 -14.76,19.114 -5.96,5.519 -13.06,9.988 -21.3,13.429 -8.36,3.399 -17.26,5.098 -26.69,5.098 -5.71,0 -10.88,-0.519 -15.51,-1.539 z m 16.72,8.469 c 2.66,0.121 5.25,0.191 7.78,0.191 13.39,0 25.14,-2.101 35.26,-6.301 11.93,-5.14 21.47,-12.371 28.64,-21.711 3.98,-5.128 7.04,-10.976 9.16,-17.539 2.12,-6.558 3.19,-13.66 3.19,-21.3 0,-18.637 -6.37,-35.59 -19.11,-50.86 -3.99,-4.847 -9.1,-9.3084 -15.32,-13.3787 -6.39,-4.082 -13.57,-7.2383 -21.54,-9.4805 -8.07,-2.3515 -16.37,-3.6015 -24.9,-3.7617 -1.46,0 -2.91,0 -4.37,0 -21.37,0 -38.82,5.6719 -52.37,16.9922 -15.4,13.1207 -23.29,29.9297 -23.68,50.4417 0.39,14.59 3.97,27.539 10.74,38.828 3.99,6.84 9.23,13.012 15.71,18.531 6.39,5.52 14.02,10.059 22.9,13.617 8.79,3.403 18.09,5.313 27.91,5.731" /><path
         id="path136"
         style="fill:#100f0d;fill-opacity:1;fill-rule:nonzero;stroke:none"
         d="m 2776.14,215.27 c -4.8,0.929 -11.9,1.781 -21.3,2.55 l -0.83,2.739 c 7.46,-0.258 21.74,-0.637 42.84,-1.149 23.63,0.379 40.1,1.039 49.41,1.969 l 2.18,13.383 3.6,1.199 c -0.68,-3.02 -1.42,-10.699 -2.23,-23.051 -0.91,-12.351 -1.37,-20.441 -1.37,-24.262 l -3.4,1.211 c 0,3.403 -0.26,8.641 -0.78,15.731 v 0.39 c 0,1.989 -6.3,4.09 -18.91,6.301 -13.68,2.25 -23.98,3.367 -30.88,3.367 h -0.39 c -0.94,-10.519 -1.6,-23 -1.99,-37.437 0.26,-4.332 0.39,-11.891 0.39,-22.672 1.71,0 3.5,0 5.35,0 5.57,-0.129 11.89,0.133 18.96,0.77 9.4,0.8 15.56,1.73 18.48,2.793 l 3.21,11.41 h 2.96 c -0.91,-4.332 -1.64,-10.891 -2.19,-19.684 -0.52,-8.828 -0.9,-16.398 -1.16,-22.719 l -3.21,1.2 v 2.75 c 0,1.863 -0.13,4.363 -0.39,7.5 -0.26,3.152 -0.39,5.25 -0.39,6.312 -0.81,1.309 -5.06,2.559 -12.74,3.75 -7.84,1.188 -15.69,1.777 -23.53,1.777 h -5.35 c 0,-30.886 0.53,-52.3863 1.6,-64.4761 0.91,-0.1328 2.82,-0.3906 5.74,-0.7735 2.92,-0.3867 5.58,-0.707 7.97,-0.9687 2.4,-0.4102 4.8,-0.6914 7.2,-0.8203 l 0.78,-3.1211 c -0.94,0 -9.77,0.25 -26.5,0.7734 -20.72,-0.5234 -32.34,-0.9219 -34.86,-1.2109 l 0.82,3.5586 c 2.53,0.2617 6.11,0.6015 10.75,1.0195 4.5,0.3828 8.02,0.8906 10.55,1.543 0.55,19.0471 0.83,40.2771 0.83,63.6561 0,16.981 -0.41,38.543 -1.22,64.684 v 0.008" /><path
         id="path138"
         style="fill:#100f0d;fill-opacity:1;fill-rule:nonzero;stroke:none"
         d="m 2917.94,185.91 c 1.71,19.059 2.57,33.449 2.57,43.168 v 5.293 c 0.26,-0.133 1.59,-0.32 3.99,-0.57 0,-5.653 0.4,-10.063 1.22,-13.242 12.73,-0.77 33.71,-1.411 62.92,-1.918 22.43,0.379 45.65,1.019 69.67,1.918 0.3,0.55 0.83,2.519 1.61,5.921 0.81,3.43 1.34,5.61 1.6,6.551 1.33,0.508 2.6,0.77 3.8,0.77 -1.2,-5.403 -2.47,-14.012 -3.8,-25.852 -1.33,-11.929 -2.25,-19.75 -2.77,-23.429 -0.81,0.121 -2.01,0.441 -3.6,0.96 0.13,2.372 0.26,4.622 0.39,6.739 0,1.953 0,4.781 0,8.472 v 6.489 c -3.04,1.699 -8.28,3.082 -15.7,4.14 -7.59,1.059 -15.09,1.782 -22.52,2.168 -7.58,0.383 -13.76,0.571 -18.52,0.571 -0.13,-4.071 -0.26,-11.098 -0.39,-21.071 -0.29,-10.109 -0.57,-22.859 -0.83,-38.258 0.55,-36 0.96,-58.6011 1.22,-67.8081 9.69,-1.1602 18.25,-2.0117 25.67,-2.5508 l 0.83,-3.1328 c -1.33,0.1328 -4.05,0.2617 -8.17,0.3828 -4.25,0 -8.96,0.0703 -14.15,0.1992 -5.19,0 -9.43,0.0586 -12.74,0.1914 -3.21,-0.1328 -7.33,-0.1914 -12.35,-0.1914 -5.19,-0.1289 -9.9,-0.1992 -14.15,-0.1992 -4.25,-0.1211 -7.1,-0.25 -8.56,-0.3828 l 1.17,3.1328 c 14.88,1.3086 23.31,2.1602 25.28,2.5508 0.56,18.1561 0.83,41.5581 0.83,70.2071 0,24.031 -0.27,43.012 -0.83,56.93 -30.24,-0.379 -49.03,-2.668 -56.35,-6.879 -0.65,-1.7 -1.98,-8.399 -3.99,-20.11 -1.98,-0.519 -3.09,-0.898 -3.35,-1.16 v 0" /><path
         id="path140"
         style="fill:#100f0d;fill-opacity:1;fill-rule:nonzero;stroke:none"
         d="m 3075.53,217.629 -0.83,2.93 c 3.86,-0.129 7.59,-0.188 11.19,-0.188 3.43,-0.133 9.14,-0.32 17.11,-0.582 8.49,0.262 14.86,0.449 19.11,0.582 4.25,0 8.77,0.059 13.57,0.188 l -1.22,-2.93 c -3.05,-0.258 -6.5,-0.66 -10.36,-1.207 -3.85,-0.641 -7.37,-1.152 -10.55,-1.543 -0.26,-3.938 -0.65,-24.508 -1.17,-61.688 0.52,-38.382 0.91,-60.4605 1.17,-66.2691 6.65,-1.1602 13.62,-2.0117 20.91,-2.5508 l 1.22,-3.1328 c -3.73,0.2617 -7.65,0.4531 -11.77,0.582 -4.25,0 -8.75,0.0586 -13.52,0.1914 C 3090.2,81.5 3078.3,81.2383 3074.7,81.2383 l 0.83,3.1328 c 11.02,1.3086 17.99,2.1602 20.91,2.5508 0.52,13.9571 0.77,35.8981 0.77,65.8281 0,23.809 -0.25,44.52 -0.77,62.129 -1.72,0.391 -8.69,1.301 -20.91,2.75 v 0" /><path
         id="path142"
         style="fill:#100f0d;fill-opacity:1;fill-rule:nonzero;stroke:none"
         d="m 3175.5,217.629 -0.83,2.93 c 3.86,-0.129 7.46,-0.188 10.8,-0.188 3.31,-0.133 7.88,-0.32 13.71,-0.582 7.16,0.262 12.55,0.449 16.14,0.582 3.44,0 7.09,0.059 10.94,0.188 l -0.38,-2.93 c -1.46,-0.129 -6.11,-1.051 -13.96,-2.75 5.32,-15.777 11.96,-34.32 19.94,-55.609 7.97,-21.282 14.08,-37.45 18.33,-48.481 0.26,0.512 1.52,3.609 3.79,9.289 2.24,5.512 6.42,15.492 12.55,29.934 5.96,14.468 11.47,28.066 16.53,40.808 4.89,12.739 7.94,20.758 9.14,24.059 -5.58,1.32 -10.42,2.23 -14.54,2.75 l -0.78,2.93 c 3.57,-0.129 6.94,-0.188 10.12,-0.188 3.08,-0.133 7,-0.32 11.76,-0.582 15.95,0.512 24.66,0.77 26.12,0.77 l -0.39,-2.938 c -0.94,0 -3.28,-0.262 -7,-0.793 -3.73,-0.527 -6.71,-1.18 -8.95,-1.949 4.5,-23 13.53,-65.66 27.08,-127.9571 6.1,-1.7031 11.27,-2.5508 15.51,-2.5508 l 1.22,-3.5625 c -3.05,0.293 -12.48,0.6914 -28.3,1.2031 -13.52,-0.5117 -22.87,-0.7734 -28.06,-0.7734 l 0.39,3.1328 c 12.09,1.0586 19.32,1.9102 21.69,2.5508 -0.91,6.4492 -2.3,15.1291 -4.18,26.0271 -1.85,10.781 -3.24,18.531 -4.18,23.25 -1.04,4.75 -3.23,15.211 -6.57,31.379 -3.31,16.012 -5.82,28.152 -7.54,36.434 l -51,-121.2307 -45.42,123.6287 -0.78,-0.43 c -4.79,-20.89 -9.32,-44.66 -13.56,-71.32 -3.57,-22.488 -5.35,-37.3514 -5.35,-44.5584 0,-1.3203 0.07,-2.3828 0.19,-3.1797 1.59,-0.1328 3.44,-0.3203 5.55,-0.5821 2.14,-0.2578 4,-0.4492 5.59,-0.5781 1.46,-0.25 3.26,-0.5234 5.4,-0.8125 2.1,-0.2578 3.69,-0.4492 4.76,-0.5781 l 0.78,-3.1328 c -3.44,0 -13.52,0.2617 -30.25,0.7734 -3.72,-0.1328 -7.18,-0.1914 -10.35,-0.1914 -3.34,-0.1289 -6.99,-0.3203 -10.94,-0.582 l 0.38,3.1328 c 1.2,0.3789 2.86,0.7187 4.96,1.0078 2.01,0.2617 5.53,0.7695 10.56,1.543 1.58,4.8789 5.57,22.8791 11.96,54.0191 6.38,31.137 11.42,55.778 15.12,73.938 -4.25,1.191 -10.15,2.101 -17.7,2.75 v 0" /><path
         id="path144"
         style="fill:#100f0d;fill-opacity:1;fill-rule:nonzero;stroke:none"
         d="m 3388.57,214.879 c -3.21,0.769 -6.53,1.371 -9.96,1.781 -3.6,0.391 -7.12,0.711 -10.56,0.961 l -1.21,2.938 c 6.26,-0.258 20.13,-0.637 41.62,-1.149 22.43,0.379 38.37,1.039 47.8,1.969 l 1.6,9.242 2.97,0.82 c -1.17,-11.461 -2.03,-20.39 -2.58,-26.812 -0.52,-6.449 -0.9,-11.117 -1.16,-14 l -3.21,1.582 v 14.199 c 0,2.891 -6.18,5.18 -18.53,6.879 -12.48,1.57 -22.11,2.359 -28.88,2.359 -1.07,-17.199 -1.61,-36.699 -1.61,-58.519 20.2,0 34.88,1.109 44.06,3.32 l 1.99,8.473 2.97,0.437 c -0.65,-3.949 -1.45,-9.738 -2.39,-17.379 -1.07,-7.761 -1.92,-14 -2.57,-18.718 l -2.82,1.59 c 0.13,2.207 0.26,4.25 0.39,6.109 0,1.828 0,4.117 0,6.879 -5.58,3.281 -18.38,4.91 -38.42,4.91 h -3.21 c 0,-2.762 -0.13,-5.309 -0.39,-7.648 0.13,-6.063 0.47,-15.332 1.03,-27.821 0.38,-12.48 0.58,-22.7302 0.58,-30.7497 28.95,0 46.08,2.6289 51.4,7.8984 0,0.3789 0.45,2.6094 1.36,6.6913 0.94,4.07 1.6,7.551 1.99,10.438 l 4.43,1.589 c -1.2,-4.718 -2.61,-12.398 -4.23,-23.0582 -1.59,-10.6484 -2.52,-18.1992 -2.78,-22.6601 l -3.16,0.7695 -0.43,11.0703 c -1.85,1.3086 -18.04,2.2305 -48.58,2.7422 -22.3,-0.5117 -35.25,-0.9219 -38.85,-1.2031 l 0.83,3.5625 c 9.4,0.8008 16.37,1.6484 20.9,2.5508 0.52,22.6171 0.78,45.3591 0.78,68.2381 0,22.461 -0.39,42.371 -1.16,59.719 h -0.01" /></g></g></svg>